<?xml version="1.0" standalone="no"?><!DOCTYPE svg PUBLIC "-//W3C//DTD SVG 1.1//EN" "http://www.w3.org/Graphics/SVG/1.1/DTD/svg11.dtd"><svg t="1691647254925" class="icon" viewBox="0 0 1024 1024" version="1.1" xmlns="http://www.w3.org/2000/svg" p-id="35606" xmlns:xlink="http://www.w3.org/1999/xlink" width="64" height="64"><path d="M744.7 779.7h-399c-6.6 0-12-5.4-12-12V256.3c0-6.6 5.4-12 12-12h399c6.6 0 12 5.4 12 12v511.4c0 6.6-5.4 12-12 12z" fill="#FFFFFF" p-id="35607"></path><path d="M744.7 791.7h-399c-13.2 0-24-10.8-24-24V256.3c0-13.2 10.8-24 24-24h399c13.2 0 24 10.8 24 24v511.4c0 13.2-10.8 24-24 24z m-399-535.4v511.4h399V256.3h-399z" fill="#474747" p-id="35608"></path><path d="M695.4 743.2H394.8c-14 0-25.5-11.5-25.5-25.5V306.3c0-14 11.5-25.5 25.5-25.5h300.6c14 0 25.5 11.5 25.5 25.5v411.3c0 14.1-11.4 25.6-25.5 25.6z" fill="#FFDD00" p-id="35609"></path><path d="M384.9 347m-21.8 0a21.8 21.8 0 1 0 43.6 0 21.8 21.8 0 1 0-43.6 0Z" fill="#FFFFFF" p-id="35610"></path><path d="M384.9 431m-21.8 0a21.8 21.8 0 1 0 43.6 0 21.8 21.8 0 1 0-43.6 0Z" fill="#FFFFFF" p-id="35611"></path><path d="M384.9 515m-21.8 0a21.8 21.8 0 1 0 43.6 0 21.8 21.8 0 1 0-43.6 0Z" fill="#FFFFFF" p-id="35612"></path><path d="M384.9 599m-21.8 0a21.8 21.8 0 1 0 43.6 0 21.8 21.8 0 1 0-43.6 0Z" fill="#FFFFFF" p-id="35613"></path><path d="M384.9 683m-21.8 0a21.8 21.8 0 1 0 43.6 0 21.8 21.8 0 1 0-43.6 0Z" fill="#FFFFFF" p-id="35614"></path><path d="M381.9 361l-73.7 42.5c-5.7 3.3-13.1 1.3-16.4-4.4l-0.5-0.8c-3.3-5.7-1.3-13.1 4.4-16.4l73.7-42.5c5.7-3.3 13.1-1.3 16.4 4.4l0.5 0.8c3.3 5.7 1.3 13.1-4.4 16.4zM381.9 440.3l-73.7 42.5c-5.7 3.3-13.1 1.3-16.4-4.4l-0.5-0.8c-3.3-5.7-1.3-13.1 4.4-16.4l73.7-42.5c5.7-3.3 13.1-1.3 16.4 4.4l0.5 0.8c3.3 5.7 1.3 13.1-4.4 16.4zM381.9 522.3l-73.7 42.5c-5.7 3.3-13.1 1.3-16.4-4.4l-0.5-0.8c-3.3-5.7-1.3-13.1 4.4-16.4l73.7-42.5c5.7-3.3 13.1-1.3 16.4 4.4l0.5 0.8c3.3 5.8 1.3 13.1-4.4 16.4zM381.9 606.4l-73.7 42.5c-5.7 3.3-13.1 1.3-16.4-4.4l-0.5-0.8c-3.3-5.7-1.3-13.1 4.4-16.4l73.7-42.5c5.7-3.3 13.1-1.3 16.4 4.4l0.5 0.8c3.3 5.7 1.3 13.1-4.4 16.4zM381.9 690.4l-73.7 42.5c-5.7 3.3-13.1 1.3-16.4-4.4l-0.5-0.8c-3.3-5.7-1.3-13.1 4.4-16.4l73.7-42.5c5.7-3.3 13.1-1.3 16.4 4.4l0.5 0.8c3.3 5.7 1.3 13.1-4.4 16.4z" fill="#474747" p-id="35615"></path><path d="M720.9 561.7v-93.5c-0.8 0-1.5-0.1-2.3-0.1H610.5c-25.7 0-46.8 21.1-46.8 46.8 0 25.7 21.1 46.8 46.8 46.8h108.1c0.8 0.1 1.6 0.1 2.3 0z" fill="#FFFFFF" p-id="35616"></path><path d="M610.2 515m-19.6 0a19.6 19.6 0 1 0 39.2 0 19.6 19.6 0 1 0-39.2 0Z" fill="#FFDD00" p-id="35617"></path></svg>