<?xml version="1.0" standalone="no"?><!DOCTYPE svg PUBLIC "-//W3C//DTD SVG 1.1//EN" "http://www.w3.org/Graphics/SVG/1.1/DTD/svg11.dtd"><svg t="1682427717006" class="icon" viewBox="0 0 1024 1024" version="1.1" xmlns="http://www.w3.org/2000/svg" p-id="3013" xmlns:xlink="http://www.w3.org/1999/xlink" width="128" height="128"><path d="M669.525333 787.694933h-315.050666A98.577067 98.577067 0 0 1 256 689.220267V334.779733a98.577067 98.577067 0 0 1 98.474667-98.474666h315.0848A98.577067 98.577067 0 0 1 768 334.779733v354.440534a98.577067 98.577067 0 0 1-98.474667 98.474666z m-315.0848-512a59.153067 59.153067 0 0 0-59.050666 59.0848v354.440534a59.153067 59.153067 0 0 0 59.0848 59.0848h315.0848a59.153067 59.153067 0 0 0 59.0848-59.0848V334.779733a59.153067 59.153067 0 0 0-59.0848-59.0848h-315.0848z" p-id="3014"></path><path d="M630.1696 512h-78.779733a59.153067 59.153067 0 0 1-59.0848-59.0848v-78.7456a59.153067 59.153067 0 0 1 59.0848-59.0848h78.779733a59.153067 59.153067 0 0 1 59.0848 59.0848v78.779733a59.153067 59.153067 0 0 1-59.0848 59.050667z m-78.779733-157.525333a19.729067 19.729067 0 0 0-19.694934 19.694933v78.779733a19.729067 19.729067 0 0 0 19.694934 19.694934h78.779733a19.729067 19.729067 0 0 0 19.694933-19.694934v-78.779733a19.729067 19.729067 0 0 0-19.694933-19.694933h-78.779733zM433.220267 354.474667h-78.7456a19.694933 19.694933 0 0 1 0-39.389867h78.779733a19.694933 19.694933 0 1 1-0.034133 39.389867zM433.220267 433.220267h-78.7456a19.694933 19.694933 0 0 1 0-39.389867h78.779733a19.694933 19.694933 0 1 1-0.034133 39.389867zM433.220267 512h-78.7456a19.694933 19.694933 0 0 1 0-39.389867h78.779733a19.694933 19.694933 0 1 1-0.034133 39.389867zM669.525333 590.779733h-315.050666a19.694933 19.694933 0 0 1 0-39.389866h315.0848a19.694933 19.694933 0 0 1-0.034134 39.389866zM551.389867 669.525333h-196.9152a19.694933 19.694933 0 0 1 0-39.389866h196.9152a19.694933 19.694933 0 0 1 0 39.389866z" p-id="3015"></path></svg>