<?xml version="1.0" standalone="no"?><!DOCTYPE svg PUBLIC "-//W3C//DTD SVG 1.1//EN" "http://www.w3.org/Graphics/SVG/1.1/DTD/svg11.dtd"><svg t="1691646739485" class="icon" viewBox="0 0 1024 1024" version="1.1" xmlns="http://www.w3.org/2000/svg" p-id="16629" xmlns:xlink="http://www.w3.org/1999/xlink" width="64" height="64"><path d="M786.7 481.6c-2.7 0-5.2 0.4-7.8 0.6-26.8-105.1-121.9-183-235.4-183s-208.5 77.9-235.4 183c-2.6-0.2-5.1-0.6-7.8-0.6-44.8 0-60.8 27.2-60.8 60.8s16 60.8 60.8 60.8c2.7 0 5.2-0.4 7.8-0.6 26.8 105.1 121.9 183 235.4 183s208.5-77.9 235.4-183c2.6 0.2 5.1 0.6 7.8 0.6 44.8 0 60.8-27.2 60.8-60.8s-16-60.8-60.8-60.8z" fill="#FFDCAE" p-id="16630"></path><path d="M399.5 520m-16 0a16 16 0 1 0 32 0 16 16 0 1 0-32 0Z" p-id="16631"></path><path d="M479.5 520m-16 0a16 16 0 1 0 32 0 16 16 0 1 0-32 0Z" p-id="16632"></path><path d="M495.5 801.6c-114 0-213.9-74.4-247.3-182.5-45.6-1.6-72.7-30-72.7-76.7s27.1-75.1 72.7-76.7c33.4-108.1 133.3-182.5 247.3-182.5s214 74.4 247.3 182.5c45.6 1.6 72.7 30 72.7 76.7s-27.1 75.1-72.7 76.7c-33.3 108.1-133.3 182.5-247.3 182.5z m-235.4-215c7.3 0 13.7 4.9 15.5 12 25.7 100.6 116.1 170.9 219.9 170.9 103.8 0 194.2-70.3 219.9-170.9 1.9-7.5 9.1-12.5 16.6-12l3.2 0.3c1.1 0.1 2.3 0.3 3.5 0.3 30.6 0 44.8-14.2 44.8-44.8 0-30.6-14.2-44.8-44.8-44.8-1.2 0-2.4 0.1-3.5 0.3l-3.2 0.3c-7.6 0.5-14.7-4.5-16.6-12-25.7-100.6-116.1-170.9-219.9-170.9-103.8 0-194.2 70.3-219.9 170.9-1.9 7.5-8.8 12.5-16.6 12l-3.1-0.3c-1.2-0.1-2.3-0.3-3.5-0.3-30.6 0-44.8 14.2-44.8 44.8 0 30.6 14.2 44.8 44.8 44.8 1.2 0 2.3-0.1 3.5-0.3l3.2-0.3h1z" p-id="16633"></path><path d="M495.5 376c-8.8 0-16-7.1-16-16 0-8.8 7.1-16 16-16 0.6 0 59.7-0.6 83-33.2 11.6-16.1 12.7-38.8 3.1-67.4-2.8-8.4 1.7-17.4 10.1-20.2 8.5-2.8 17.4 1.7 20.2 10.1 13 38.9 10.4 71.3-7.6 96.3-32.9 45.9-105.7 46.4-108.8 46.4z" p-id="16634"></path><path d="M303.5 584a32 16 0 1 0 64 0 32 16 0 1 0-64 0Z" fill="#E85466" p-id="16635"></path><path d="M511.5 584a32 16 0 1 0 64 0 32 16 0 1 0-64 0Z" fill="#E85466" p-id="16636"></path></svg>